PathFileType	4	(X/Y/Z)	/Users/itak/Documents/Research/Walk-IL/dataset/trc/00156_00007.trc
DataRate	CameraRate	NumFrames	NumMarkers	Units	OrigDataRate	OrigDataStartFrame	OrigNumFrames
100.000000	100.000000	4	53	mm	100.000000	311	498
Frame#	Time	RPSI			LPSI			L3			STRN			T10			C7			CLAV			RBAK			LBAK			LSHO			LUPA			LAEL			LAOL			LWTS			LWPS			LFRA			LHPS			LHTS			RSHO			RUPA			RAEL			RAOL			RWTS			RWPS			RFRA			RIFD			RHTS			RHPS			RBHD			LFHD			RFHD			LBHD			LHIP			RHIP			RASI			LASI			LKNE			LTHI			LANK			LTIP			LTOE			LMT1			LMT5			LHEE			RKNE			RTHI			RANK			RTIP			RTOE			RMT1			RMT5			RHEE			LIFD			
		X1	Y1	Z1	X2	Y2	Z2	X3	Y3	Z3	X4	Y4	Z4	X5	Y5	Z5	X6	Y6	Z6	X7	Y7	Z7	X8	Y8	Z8	X9	Y9	Z9	X10	Y10	Z10	X11	Y11	Z11	X12	Y12	Z12	X13	Y13	Z13	X14	Y14	Z14	X15	Y15	Z15	X16	Y16	Z16	X17	Y17	Z17	X18	Y18	Z18	X19	Y19	Z19	X20	Y20	Z20	X21	Y21	Z21	X22	Y22	Z22	X23	Y23	Z23	X24	Y24	Z24	X25	Y25	Z25	X26	Y26	Z26	X27	Y27	Z27	X28	Y28	Z28	X29	Y29	Z29	X30	Y30	Z30	X31	Y31	Z31	X32	Y32	Z32	X33	Y33	Z33	X34	Y34	Z34	X35	Y35	Z35	X36	Y36	Z36	X37	Y37	Z37	X38	Y38	Z38	X39	Y39	Z39	X40	Y40	Z40	X41	Y41	Z41	X42	Y42	Z42	X43	Y43	Z43	X44	Y44	Z44	X45	Y45	Z45	X46	Y46	Z46	X47	Y47	Z47	X48	Y48	Z48	X49	Y49	Z49	X50	Y50	Z50	X51	Y51	Z51	X52	Y52	Z52	X53	Y53	Z53	

312	3.11	141.7747650146484	1110.75390625	-43.49636840820312	260.4115600585938	1110.9326171875	-107.4424819946289	197.5746459960938	1145.619384765625	-84.06447601318359	297.7134094238281	1356.78662109375	107.2795944213867	176.6075134277344	1296.28857421875	-113.8190536499023	196.8166198730469	1589.736450195312	-98.16564178466797	280.3645629882812	1489.955078125	68.58750152587891	98.16738891601562	1403.690307617188	-97.02193450927734	282.6881713867188	1571.076293945312	-153.53173828125	384.5026550292969	1559.58203125	-111.143684387207	435.4176635742188	1429.6611328125	-165.8389434814453	463.7366638183594	1212.945068359375	-175.4679870605469	379.0831909179688	1198.8837890625	-198.5914611816406	490.1773071289062	953.5955200195312	-72.92716217041016	467.4373474121094	928.419677734375	-155.5636749267578	478.9332275390625	1096.3056640625	-167.2875213623047	484.0403442382812	853.23828125	-132.4716949462891	507.5559997558594	864.6696166992188	-67.83200836181641	66.66802978515625	1574.150268554688	38.41811370849609	4.43128490447998	1500.03466796875	56.31357192993164	-12.76298332214355	1204.61328125	80.98890686035156	71.81280517578125	1200.91943359375	30.75002098083496	81.73786163330078	990.93408203125	240.1097564697266	22.44586563110352	960.7569580078125	192.0125274658203	-10.89174175262451	1136.203735351562	120.1438751220703	125.2043991088867	804.7015991210938	285.9459838867188	99.31224060058594	890.2396240234375	286.1443176269531	43.52519226074219	869.9342651367188	242.5796203613281	144.3663482666016	1763.589477539062	-31.30546760559082	321.4464721679688	1833.970947265625	80.908935546875	200.2698211669922	1826.366821289062	127.2785568237305	267.9281616210938	1775.579345703125	-84.863525390625	403.8162841796875	1029.283813476562	-66.21689605712891	97.95600128173828	1018.777893066406	124.9241180419922	179.0014190673828	1095.722290039062	172.7501678466797	409.7428588867188	1100.160278320312	43.63691329956055	495.1944885253906	554.4790649414062	114.7984085083008	478.3865661621094	692.7728881835938	38.72085571289062	386.2730102539062	136.211669921875	-195.7473297119141	444.6753845214844	361.6156616210938	-75.57993316650391	466.9973754882812	50.21845245361328	-2.056472301483154	396.5503540039062	69.2052001953125	-38.25106048583984	472.5685119628906	84.98789215087891	-124.4390563964844	297.5358581542969	156.7502593994141	-209.8436737060547	182.3126373291016	527.5744018554688	83.00045013427734	133.5037536621094	803.1481323242188	131.5635833740234	232.9765472412109	26.22381210327148	-44.9719123840332	180.9867553710938	393.9466247558594	55.60444259643555	361.387939453125	45.70556640625	154.1653289794922	381.8273620605469	44.07228469848633	81.85015106201172	260.6589660644531	37.56550979614258	87.55481719970703	259.3116455078125	29.19028282165527	-114.0385055541992	482.6881713867188	759.8744506835938	-51.92979049682617	
313	3.12	146.3710784912109	1111.0029296875	-39.71529388427734	266.2051086425781	1111.318603515625	-101.5462799072266	202.9518585205078	1146.025634765625	-79.11630249023438	299.9860229492188	1356.932250976562	114.1164093017578	181.3572998046875	1296.557373046875	-107.3250045776367	201.4597625732422	1589.998657226562	-92.27277374267578	283.402099609375	1490.146728515625	75.20266723632812	102.6608657836914	1404.179931640625	-92.15352630615234	287.7906188964844	1571.225830078125	-146.92236328125	389.2418212890625	1559.51025390625	-103.7041702270508	440.1560668945312	1429.681274414062	-158.4987487792969	467.7972412109375	1213.069702148438	-169.2099456787109	383.2409973144531	1199.320556640625	-192.8699493408203	493.0562133789062	953.3900146484375	-67.34226226806641	470.8920593261719	928.410888671875	-150.2703399658203	482.7177124023438	1096.374755859375	-161.4024505615234	487.0191040039062	853.0592041015625	-127.0353851318359	509.9449768066406	864.3544921875	-62.17384338378906	70.03140258789062	1574.646728515625	42.89340591430664	7.563282012939453	1500.590698242188	60.59174346923828	-9.420611381530762	1205.085693359375	87.12556457519531	75.40144348144531	1201.196533203125	37.15162658691406	85.59548950195312	993.4327392578125	248.7044372558594	26.8016529083252	962.4144287109375	200.7810668945312	-7.355667591094971	1137.064819335938	126.9979858398438	129.7131958007812	808.0181274414062	297.0009765625	103.4139785766602	893.4374389648438	296.0184020996094	47.88516998291016	872.3426513671875	252.4904479980469	148.8019409179688	1764.035278320312	-25.70246124267578	325.6742248535156	1834.25244140625	86.92961120605469	204.3629913330078	1826.955444335938	132.9401702880859	272.55908203125	1775.589599609375	-78.85981750488281	408.8233337402344	1029.98779296875	-57.67605972290039	99.70647430419922	1018.677612304688	127.911262512207	179.7593841552734	1095.635375976562	177.4407196044922	412.8348083496094	1100.862060546875	52.21369934082031	499.04541015625	557.2053833007812	128.4499816894531	483.3674926757812	694.5830688476562	50.56878662109375	404.7279663085938	127.9134674072266	-171.5381774902344	456.1868591308594	358.1805725097656	-57.72607040405273	483.7483825683594	51.15874481201172	26.7049674987793	413.4990234375	66.84537506103516	-11.55297756195068	490.8466491699219	81.47630310058594	-96.78223419189453	315.89013671875	145.7089691162109	-188.1266021728516	183.6473083496094	527.6050415039062	85.04609680175781	134.6161956787109	803.1060791015625	133.9485168457031	233.1437683105469	26.51199150085449	-45.04390716552734	182.3127288818359	394.0457763671875	56.84506225585938	360.9946899414062	46.01870346069336	154.2484130859375	381.7676391601562	44.1347541809082	82.07203674316406	260.6305847167969	37.49988555908203	87.59980010986328	259.3348388671875	29.63639450073242	-114.2072830200195	484.7751770019531	759.6427612304688	-46.06951522827148	
314	3.13	151.1482238769531	1111.1513671875	-35.93397521972656	272.0027770996094	1111.60205078125	-95.69783782958984	208.2636871337891	1146.425903320312	-74.24668884277344	302.1810302734375	1357.008178710938	120.8991394042969	186.1421508789062	1296.764770507812	-100.853759765625	206.1145172119141	1590.214111328125	-86.37487030029297	286.3980712890625	1490.271362304688	81.79831695556641	107.1687927246094	1404.60302734375	-87.36247253417969	292.899169921875	1571.325317382812	-140.2919769287109	393.9686584472656	1559.407348632812	-96.23705291748047	444.9097595214844	1429.67822265625	-151.1096954345703	471.911376953125	1213.178344726562	-162.8707580566406	387.455322265625	1199.747192382812	-187.0455932617188	496.0103759765625	953.1622924804688	-61.74789047241211	474.4529724121094	928.380615234375	-144.9481506347656	486.5760498046875	1096.4326171875	-155.4472351074219	490.0972290039062	852.8558959960938	-121.5690994262695	512.4446411132812	864.0503540039062	-56.48941802978516	73.37002563476562	1575.0439453125	47.29598617553711	10.69650363922119	1501.048217773438	64.82200622558594	-6.098832607269287	1205.481811523438	93.14205169677734	78.98743438720703	1201.413452148438	43.45053482055664	89.39707946777344	995.7975463867188	257.091796875	31.11824607849121	963.9694213867188	209.3165283203125	-3.828438758850098	1137.846069335938	133.7104339599609	134.0633239746094	811.2139892578125	307.7984008789062	107.4212646484375	896.5073852539062	305.6502380371094	52.17989730834961	874.6395874023438	262.1490783691406	153.2231597900391	1764.405029296875	-20.11806297302246	329.89501953125	1834.489624023438	92.91231536865234	208.4419708251953	1827.52001953125	138.5585327148438	277.1941223144531	1775.529052734375	-72.89205169677734	413.7557067871094	1030.58544921875	-49.12276458740234	101.495849609375	1018.58984375	130.828125	180.5274353027344	1095.527954101562	182.0515289306641	415.9072265625	1101.511352539062	60.74591064453125	502.6587829589844	559.7306518554688	141.6630249023438	488.1466064453125	696.2144165039062	62.09418869018555	422.7483825683594	119.7810821533203	-146.7112274169922	467.4227600097656	354.6893310546875	-39.79912948608398	499.6369323730469	52.3188362121582	55.73679351806641	429.7278442382812	64.77118682861328	15.56992244720459	508.4471435546875	78.17903137207031	-68.7037353515625	333.8915100097656	134.886474609375	-165.6528930664062	185.0486450195312	527.6123046875	87.21485900878906	135.8403167724609	803.036865234375	136.4478607177734	233.3576507568359	26.81521797180176	-45.11717987060547	183.6838989257812	394.1203918457031	58.20039367675781	360.6460571289062	46.28300094604492	154.3365020751953	381.7496948242188	44.19439315795898	82.35064697265625	260.6022338867188	37.42927551269531	87.63937377929688	259.2446899414062	30.18634605407715	-114.4217147827148	487.0565185546875	759.4124755859375	-40.03842544555664	
315	3.14	156.0668029785156	1111.218872070312	-32.11455154418945	277.7880859375	1111.786254882812	-89.87966156005859	213.5093994140625	1146.8017578125	-69.42299652099609	304.3203735351562	1357.016845703125	127.6247863769531	190.9656677246094	1296.9111328125	-94.48353576660156	210.7804718017578	1590.378051757812	-80.47627258300781	289.3569946289062	1490.328125	88.36578369140625	111.6938629150391	1404.949096679688	-82.64521026611328	298.0166931152344	1571.374755859375	-133.6432647705078	398.6829223632812	1559.279541015625	-88.74174499511719	449.6903076171875	1429.654052734375	-143.6681976318359	476.0906982421875	1213.2666015625	-156.4384307861328	391.7316284179688	1200.1552734375	-181.1054077148438	499.0427856445312	952.9008178710938	-56.15091705322266	478.1134338378906	928.3209838867188	-139.5919036865234	490.5123291015625	1096.472290039062	-149.4143829345703	493.2652587890625	852.6193237304688	-116.0737533569336	515.0656127929688	863.745361328125	-50.78681182861328	76.70597839355469	1575.34375	51.65883636474609	13.83959579467773	1501.403930664062	69.00850677490234	-2.776427268981934	1205.800903320312	99.06278228759766	82.57090759277344	1201.569458007812	49.65442657470703	93.14698791503906	998.0086669921875	265.2668151855469	35.36577224731445	965.4131469726562	217.6161499023438	-0.2876445055007935	1138.526000976562	140.2924041748047	138.2683868408203	814.2544555664062	318.3038940429688	111.3536605834961	899.4165649414062	315.0217895507812	56.41270446777344	876.7971801757812	271.5404357910156	157.630126953125	1764.705444335938	-14.54230403900146	334.1153869628906	1834.664916992188	98.86654663085938	212.5112762451172	1828.049560546875	144.1442718505859	281.8229370117188	1775.39599609375	-66.95386505126953	418.6398010253906	1031.078857421875	-40.55212783813477	103.3340682983398	1018.501220703125	133.7113189697266	181.3350219726562	1095.399047851562	186.6077270507812	418.9515075683594	1102.082885742188	69.24711608886719	506.0824279785156	562.045166015625	154.4184112548828	492.7536926269531	697.6622924804688	73.29144287109375	440.2820129394531	111.9109878540039	-121.3433685302734	478.3602600097656	351.2091979980469	-21.84001159667969	514.597900390625	53.72841262817383	84.94640350341797	445.14697265625	63.0047492980957	43.01371002197266	525.304931640625	75.13670349121094	-40.27226638793945	351.4971313476562	124.4117889404297	-142.5242004394531	186.5075073242188	527.5902709960938	89.50234985351562	137.2008056640625	802.9354858398438	139.073974609375	233.6251068115234	27.13700675964355	-45.1978874206543	185.0918579101562	394.1672668457031	59.67368698120117	360.3644409179688	46.46720504760742	154.4342498779297	381.7767333984375	44.23377990722656	82.67646789550781	260.5635681152344	37.36623764038086	87.66985321044922	259.1602172851562	30.7862491607666	-114.6484832763672	489.51611328125	759.1752319335938	-33.87022399902344	
